<svg xmlns="http://www.w3.org/2000/svg" xmlns:xlink="http://www.w3.org/1999/xlink" xmlns:a="http://ns.adobe.com/AdobeSVGViewerExtensions/3.0/" version="1.1" x="0px" y="0px" width="893px" height="111px" viewBox="65.541 74.06 893 111" overflow="visible" enable-background="new 65.541 74.06 893 111" xml:space="preserve" ><rect id="svgEditorBackground" x="65.54100036621094" y="74.05999755859375" width="893" height="111" style="fill: none; stroke: none;"/>
<defs>
</defs>
<path d="M148.541,153.871l-2.8629999999999995,-7.891999999999996h-19.976l-2.9329999999999927,7.891999999999996h-11.314999999999998l18.019000000000005,-46.587h12.432999999999993l17.94999999999999,46.587h-11.314999999999998ZM135.689,117.203l-7.26400000000001,20.04400000000001h14.527999999999992l-7.263999999999982,-20.04400000000001Z" fill="white"/>
<g>
	<defs>
		<rect id="SVGID_1_" width="1024" height="259.77"/>
	</defs>
	<clipPath id="SVGID_2_">
		<use xlink:href="#SVGID_1_" overflow="visible"/>
	</clipPath>
	<path clip-path="url(#SVGID_2_)" d="M183.742,153.872v-46.587h18.399c3.6370000000000005,0,6.983000000000004,0.5589999999999975,10.038000000000011,1.6770000000000067c3.055000000000007,1.1170000000000044,5.667000000000002,2.688999999999993,7.836000000000013,4.715000000000003c2.169000000000011,2.0250000000000057,3.8600000000000136,4.481999999999999,5.072000000000003,7.367999999999995c1.2129999999999939,2.8870000000000005,1.8189999999999884,6.075999999999993,1.8189999999999884,9.568999999999988c0,3.4919999999999902,-0.6059999999999945,6.6699999999999875,-1.8189999999999884,9.533999999999992c-1.211999999999989,2.8629999999999995,-2.9029999999999916,5.3089999999999975,-5.072000000000003,7.332999999999998c-2.169000000000011,2.0250000000000057,-4.781000000000006,3.5989999999999895,-7.836000000000013,4.713999999999999c-3.055000000000007,1.1189999999999998,-6.4010000000000105,1.6779999999999973,-10.038000000000011,1.6779999999999973h-18.399ZM202.111,145.14c2.281000000000006,0,4.330999999999989,-0.3830000000000098,6.146999999999991,-1.1510000000000105s3.352000000000004,-1.8170000000000073,4.609000000000009,-3.1440000000000055c1.2580000000000098,-1.3269999999999982,2.2110000000000127,-2.875,2.8640000000000043,-4.64500000000001c0.6519999999999868,-1.7700000000000102,0.9780000000000086,-3.6330000000000098,0.9780000000000086,-5.586999999999989c0,-2.0490000000000066,-0.3149999999999977,-3.969999999999999,-0.943000000000012,-5.7620000000000005c-0.6280000000000143,-1.7920000000000016,-1.5480000000000018,-3.340999999999994,-2.758999999999986,-4.646000000000001c-1.2110000000000127,-1.3029999999999973,-2.73599999999999,-2.326999999999998,-4.574999999999989,-3.0729999999999933c-1.8400000000000034,-0.742999999999995,-3.945999999999998,-1.1170000000000044,-6.320999999999998,-1.1170000000000044h-8.450999999999993v29.125000000000014h8.450999999999965Z" fill="white"/>
	<path clip-path="url(#SVGID_2_)" d="M284.598,153.871l-2.863999999999976,-7.891999999999996h-19.976l-2.9329999999999927,7.891999999999996h-11.315000000000055l18.019999999999982,-46.587h12.432000000000016l17.94999999999999,46.587h-11.313999999999965ZM271.746,117.203l-7.26400000000001,20.04400000000001h14.52800000000002l-7.26400000000001,-20.04400000000001Z" fill="white"/>
	<rect x="322.592" y="107.284" clip-path="url(#SVGID_2_)" width="9.917" height="46.586" fill="white"/>
	<path clip-path="url(#SVGID_2_)" d="M390.411,153.872l-9.149999999999977,-16.552999999999997h-7.264999999999986v16.552999999999997h-9.916999999999973v-46.587h21.831999999999994c2.4250000000000114,0,4.6059999999999945,0.3739999999999952,6.543000000000006,1.117999999999995c1.9359999999999786,0.7450000000000045,3.5790000000000077,1.7920000000000016,4.932999999999993,3.1430000000000007c1.3530000000000086,1.350999999999999,2.3899999999999864,2.945999999999998,3.115000000000009,4.784000000000006c0.7210000000000036,1.8400000000000034,1.0840000000000032,3.8299999999999983,1.0840000000000032,5.971000000000004c0,2.051000000000002,-0.2939999999999827,3.8659999999999997,-0.8799999999999955,5.448999999999998c-0.5860000000000127,1.583999999999989,-1.3700000000000045,2.9450000000000074,-2.355000000000018,4.084999999999994c-0.9839999999999804,1.141999999999996,-2.0860000000000127,2.0740000000000123,-3.305999999999983,2.7949999999999875c-1.2180000000000177,0.7220000000000084,-2.4610000000000127,1.2220000000000084,-3.7269999999999754,1.5010000000000048l10.476999999999975,17.741000000000014h-11.384000000000071ZM384.404,128.587c2.0009999999999764,0,3.666999999999973,-0.5579999999999927,4.9950000000000045,-1.6770000000000067c1.3260000000000218,-1.1159999999999997,1.990000000000009,-2.653000000000006,1.990000000000009,-4.609999999999999c0,-1.9549999999999983,-0.6639999999999873,-3.4920000000000044,-1.990000000000009,-4.608000000000004c-1.3279999999999745,-1.1189999999999998,-2.994000000000028,-1.6770000000000067,-4.9950000000000045,-1.6770000000000067h-10.408000000000015v12.571999999999989h10.408000000000015Z" fill="white"/>
	<path clip-path="url(#SVGID_2_)" d="M444.625,179.07h-372.784v-98.71h372.784v98.71ZM450.926,74.06h-6.300999999999988h-372.784h-6.301000000000002v6.301000000000002v98.70899999999999v6.300999999999988h6.301000000000002h372.784h6.300999999999988v-6.300999999999988v-98.71v-6.299999999999997Z" fill="white"/>
	<path clip-path="url(#SVGID_2_)" d="M506.749,154.709c-3.492999999999995,0,-6.7520000000000095,-0.5829999999999984,-9.778999999999996,-1.7460000000000093c-3.026999999999987,-1.1639999999999873,-5.646000000000015,-2.8060000000000116,-7.857000000000028,-4.924000000000007c-2.211999999999989,-2.117999999999995,-3.958000000000027,-4.656000000000006,-5.2379999999999995,-7.614000000000004c-1.2819999999999823,-2.955999999999989,-1.9209999999999923,-6.227000000000004,-1.9209999999999923,-9.812000000000012c0,-3.5859999999999985,0.63900000000001,-6.8559999999999945,1.9209999999999923,-9.813999999999993c1.2799999999999727,-2.9569999999999936,3.0260000000000105,-5.492999999999995,5.2379999999999995,-7.6129999999999995c2.2110000000000127,-2.117999999999995,4.829999999999984,-3.7590000000000003,7.857000000000028,-4.924000000000007c3.026999999999987,-1.1629999999999967,6.286000000000001,-1.7459999999999951,9.778999999999996,-1.7459999999999951c2.5600000000000023,0,4.865000000000009,0.3259999999999934,6.914999999999964,0.9770000000000039c2.048999999999978,0.6539999999999964,3.8640000000000327,1.5030000000000001,5.447999999999979,2.549999999999997c1.5819999999999936,1.0480000000000018,2.9569999999999936,2.2590000000000003,4.120999999999981,3.632000000000005c1.163000000000011,1.3739999999999952,2.1649999999999636,2.7830000000000013,3.0030000000000427,4.225999999999999l-8.520999999999958,4.189999999999998c-0.9779999999999518,-1.909000000000006,-2.44399999999996,-3.5150000000000006,-4.399999999999977,-4.819000000000003c-1.954999999999984,-1.3029999999999973,-4.144999999999982,-1.956000000000003,-6.564999999999998,-1.956000000000003c-2.0950000000000273,0,-4.0400000000000205,0.3850000000000051,-5.831999999999994,1.1530000000000058c-1.7930000000000064,0.7669999999999959,-3.3419999999999845,1.8389999999999986,-4.644999999999982,3.212999999999994c-1.3039999999999736,1.3739999999999952,-2.315999999999974,2.9920000000000044,-3.038000000000011,4.852999999999994c-0.7230000000000132,1.8640000000000043,-1.0830000000000268,3.88900000000001,-1.0830000000000268,6.078000000000003c0,2.187999999999988,0.36000000000001364,4.224999999999994,1.0830000000000268,6.11099999999999c0.72199999999998,1.8859999999999957,1.7339999999999804,3.5039999999999907,3.038000000000011,4.854000000000013c1.3029999999999973,1.3499999999999943,2.8519999999999754,2.408999999999992,4.644999999999982,3.1779999999999973c1.7919999999999732,0.7680000000000007,3.737000000000023,1.1519999999999868,5.831999999999994,1.1519999999999868c2.420000000000016,0,4.610000000000014,-0.6399999999999864,6.564999999999998,-1.9209999999999923c1.9560000000000173,-1.2800000000000011,3.423000000000002,-2.897999999999996,4.399999999999977,-4.85499999999999l8.520999999999958,4.121000000000009c-0.8379999999999654,1.4439999999999884,-1.8400000000000318,2.8540000000000134,-3.0030000000000427,4.225999999999999c-1.1639999999999873,1.3760000000000048,-2.5389999999999873,2.5970000000000084,-4.120999999999981,3.6670000000000016c-1.5839999999999463,1.0720000000000027,-3.399000000000001,1.9339999999999975,-5.447999999999979,2.585000000000008c-2.0500000000000114,0.6520000000000152,-4.354999999999961,0.9780000000000086,-6.914999999999964,0.9780000000000086" style="" fill="white"/>
	<path clip-path="url(#SVGID_2_)" d="M580.855,153.872l-9.150999999999954,-16.552999999999997h-7.26400000000001v16.552999999999997h-9.91700000000003v-46.587h21.831999999999994c2.4249999999999545,0,4.605000000000018,0.3739999999999952,6.543000000000006,1.117999999999995c1.9349999999999454,0.7450000000000045,3.578999999999951,1.7920000000000016,4.932999999999993,3.1430000000000007c1.3529999999999518,1.350999999999999,2.3909999999999627,2.945999999999998,3.1130000000000564,4.784000000000006c0.7229999999999563,1.8400000000000034,1.0860000000000127,3.8299999999999983,1.0860000000000127,5.971000000000004c0,2.051000000000002,-0.2939999999999827,3.8659999999999997,-0.8799999999999955,5.448999999999998c-0.5860000000000127,1.583999999999989,-1.3700000000000045,2.9450000000000074,-2.355000000000018,4.084999999999994c-0.9829999999999472,1.141999999999996,-2.086999999999989,2.0740000000000123,-3.30600000000004,2.7949999999999875c-1.219000000000051,0.7220000000000084,-2.4610000000000127,1.2220000000000084,-3.7269999999999754,1.5010000000000048l10.476999999999975,17.741000000000014h-11.384000000000015ZM574.849,128.587c2.0009999999999764,0,3.66700000000003,-0.5579999999999927,4.993000000000052,-1.6770000000000067c1.3269999999999982,-1.1159999999999997,1.990000000000009,-2.653000000000006,1.990000000000009,-4.609999999999999c0,-1.9549999999999983,-0.6630000000000109,-3.4920000000000044,-1.990000000000009,-4.608000000000004c-1.3260000000000218,-1.1189999999999998,-2.991999999999962,-1.6770000000000067,-4.993000000000052,-1.6770000000000067h-10.408999999999992v12.571999999999989h10.408999999999992Z" fill="white"/>
	<polygon clip-path="url(#SVGID_2_)" points="621.783,153.872 621.783,107.284 654.75,107.284 654.75,116.015 631.702,116.015    631.702,125.863 654.261,125.863 654.261,134.594 631.702,134.594 631.702,145.14 654.75,145.14 654.75,153.872  " fill="white"/>
	<path clip-path="url(#SVGID_2_)" d="M716.98,153.871l-2.8640000000000327,-7.891999999999996h-19.974000000000046l-2.933999999999969,7.891999999999996h-11.313999999999965l18.01800000000003,-46.587h12.432999999999993l17.951999999999998,46.587h-11.317000000000007ZM704.131,117.203l-7.265999999999963,20.04400000000001h14.52800000000002l-7.262000000000057,-20.04400000000001Z" fill="white"/>
	<polygon clip-path="url(#SVGID_2_)" points="761.262,153.872 761.262,116.015 747.642,116.015 747.642,107.284 784.73,107.284    784.73,116.015 771.181,116.015 771.181,153.872  " fill="white"/>
	<rect x="813.505" y="107.284" clip-path="url(#SVGID_2_)" width="9.917" height="46.586" fill="white"/>
	<polygon clip-path="url(#SVGID_2_)" points="868.054,153.872 850.033,107.284 861.349,107.284 874.27,143.114 887.121,107.284    898.436,107.284 880.485,153.872  " fill="white"/>
	<polygon clip-path="url(#SVGID_2_)" points="925.115,153.872 925.115,107.284 958.081,107.284 958.081,116.015 935.032,116.015    935.032,125.863 957.594,125.863 957.594,134.594 935.032,134.594 935.032,145.14 958.081,145.14 958.081,153.872  " fill="white"/>
</g>
</svg>